# xmcd
# 
# Track frame offsets:
#     182
#     28700
#     48482
#     92345
#     113855
# 
# Disc length: 2373
# 
# Revision: 23
# Processed by: cddbd v1.5.2PL0 Copyright (c) Steve Scherf et al.
# Submitted via: fre:ac v1.0.17
# 
DISCID=35094305
DTITLE=Black Sabbath - Black Sabbath
DYEAR=1970
DGENRE=Heavy Metal
TTITLE0=Black Sabbath
TTITLE1=The Wizard
TTITLE2=Wasp, Behind The Wall Of Sleep, Bassically, N.I.B.
TTITLE3=Wicked World
TTITLE4=A Bit Of Finger, Sleeping Village, Warning
EXTD=
EXTT0=
EXTT1=
EXTT2=
EXTT3=
EXTT4=
PLAYORDER=
